<svg width="81" height="38" viewBox="0 0 81 38" xmlns="http://www.w3.org/2000/svg"><title>Slice 1</title><path d="M21.372 24.862a1.358 1.358 0 1 1-2.716 0v-4.245l-.002.166a2.034 2.034 0 0 0-4.069 0l-.004.513v3.566a1.358 1.358 0 1 1-2.716 0v-3.566l.004-.513a4.75 4.75 0 1 1 9.5 0l.003-.166v4.245zM1 21.636v-7.44a1.358 1.358 0 0 1 2.716 0v7.44l.002-.166a2.034 2.034 0 0 0 4.069 0l.004-.513v-6.761a1.358 1.358 0 0 1 2.716 0v6.761l-.004.513a4.75 4.75 0 1 1-9.501 0L1 21.636zm24.49 3.226a1.358 1.358 0 1 1-2.717 0V17.4a1.358 1.358 0 1 1 2.716 0v7.462zm.041-10.825a1.4 1.4 0 1 1-2.8 0 1.4 1.4 0 0 1 2.8 0zm16.554 4.713c-1.124 0-2.034.91-2.034 2.033l-.004.513v3.566a1.358 1.358 0 1 1-2.717 0v-3.566l.004-.513a4.75 4.75 0 0 1 4.75-4.75h.849a1.358 1.358 0 1 1 0 2.716h-.848zm12.222 2.377a5.252 5.252 0 1 1-10.503 0 5.252 5.252 0 0 1 10.503 0zm-5.262-2.717a2.716 2.716 0 1 0 0 5.432 2.716 2.716 0 0 0 0-5.432zm11.386 5.094h-.52a2.034 2.034 0 0 1-2.035-2.035l-.004-.512V18.75h2.377a1.358 1.358 0 1 0 0-2.716h-2.377v-.68a1.358 1.358 0 1 0-2.716 0v5.604l.004.513a4.75 4.75 0 0 0 4.75 4.75h.521a1.358 1.358 0 1 0 0-2.716zm-23.433-5.912a4.75 4.75 0 0 0-4.75-4.75l-.513-.004h-3.402c-.75 0-1.358.608-1.358 1.358V24.86a1.358 1.358 0 1 0 2.716 0v-9.307h2.044l.512.004a2.034 2.034 0 1 1 0 4.069l.167.002h-.51a1.358 1.358 0 1 0 0 2.716h.51l-.167-.002a4.75 4.75 0 0 0 4.75-4.75zM57.84 4.234a1.151 1.151 0 1 1-2.304 0 1.151 1.151 0 0 1 2.303 0zM53.896 7.72a.921.921 0 1 1-1.843 0 .921.921 0 0 1 1.843 0zm9.22-5.28a1.44 1.44 0 1 1-2.878-.001 1.44 1.44 0 0 1 2.878 0zm6.09.565a1.8 1.8 0 1 1-3.598 0 1.8 1.8 0 0 1 3.598 0zm5.772 3.161a2.249 2.249 0 1 1-4.497 0 2.249 2.249 0 0 1 4.497 0zm4.096 5.927a2.586 2.586 0 1 1-5.172 0 2.586 2.586 0 0 1 5.172 0zm.486 7.779a2.974 2.974 0 1 1-5.948 0 2.974 2.974 0 0 1 5.947 0zm-3.271 7.653a3.435 3.435 0 1 1-6.87 0 3.435 3.435 0 0 1 6.87 0zm-7.494 5.321a3.85 3.85 0 1 1-7.7 0 3.85 3.85 0 0 1 7.7 0zm-9.789-.223a4.315 4.315 0 1 1-8.629 0 4.315 4.315 0 0 1 8.63 0z" fill="#FFF" fill-rule="evenodd"/></svg>