<?xml version="1.0" encoding="UTF-8" standalone="no"?>
<svg width="81px" height="38px" viewBox="0 0 81 38" version="1.1" xmlns="http://www.w3.org/2000/svg" xmlns:xlink="http://www.w3.org/1999/xlink">
    <!-- Generator: Sketch 3.8.2 (29753) - http://www.bohemiancoding.com/sketch -->
    <title>Slice 1</title>
    <desc>Created with Sketch.</desc>
    <defs></defs>
    <g id="Page-1" stroke="none" stroke-width="1" fill="none" fill-rule="evenodd">
        <g id="uniprot-rgb" transform="translate(1.000000, 1.000000)" fill="#FFFFFF">
            <g id="Calque_1">
                <g id="g35" transform="translate(0.000000, 11.549488)">
                    <g id="g37">
                        <path d="M20.3719454,12.3124915 C20.3719454,13.0627167 19.7638771,13.670785 19.0137747,13.670785 C18.2637952,13.670785 17.6556041,13.0628396 17.6556041,12.3124915 L17.6556041,8.06719454 L17.6536382,8.23380205 C17.6536382,7.11043003 16.7429488,6.19961775 15.6194539,6.19961775 C14.495959,6.19961775 13.5852696,7.11043003 13.5852696,8.23380205 L13.581215,8.746157 L13.581215,12.3123686 C13.581215,13.0625939 12.9731468,13.6706621 12.2230444,13.6706621 C11.472942,13.6706621 10.8648737,13.0627167 10.8648737,12.3123686 L10.8648737,8.746157 L10.8688055,8.23380205 C10.8688055,5.61010239 12.9956314,3.48327645 15.6193311,3.48327645 C18.2430307,3.48327645 20.3698567,5.61022526 20.3698567,8.23380205 L20.3719454,8.06719454 L20.3719454,12.3124915 Z" id="path39"></path>
                        <path d="M0,9.08686689 L0,1.64629352 C0,0.896313993 0.608068259,0.288122867 1.35817065,0.288122867 C2.10827304,0.288122867 2.7163413,0.896191126 2.7163413,1.64629352 L2.7163413,9.08686689 L2.7181843,8.92025939 C2.7181843,10.0436314 3.62899659,10.9544437 4.7523686,10.9544437 C5.87574061,10.9544437 6.7865529,10.0436314 6.7865529,8.92025939 L6.79060751,8.40790444 L6.79060751,1.64641638 C6.79060751,0.89643686 7.39867577,0.288245734 8.14877816,0.288245734 C8.89888055,0.288245734 9.50694881,0.896313993 9.50694881,1.64641638 L9.50694881,8.40790444 L9.50301706,8.92038225 C9.50301706,11.5440819 7.37619113,13.670785 4.75249147,13.670785 C2.12879181,13.670785 0.00196587031,11.543959 0.00196587031,8.92038225 L0,9.08686689 L0,9.08686689 Z" id="path41"></path>
                        <g id="g43" transform="translate(21.624573, 0.000000)">
                            <path d="M2.86451877,12.3124915 C2.86451877,13.0627167 2.25645051,13.670785 1.50634812,13.670785 C0.756368601,13.670785 0.148177474,13.0628396 0.148177474,12.3124915 L0.148177474,4.85053925 C0.148177474,4.10043686 0.756245734,3.49224573 1.50634812,3.49224573 C2.25645051,3.49224573 2.86451877,4.10031399 2.86451877,4.85053925 L2.86451877,12.3124915 L2.86451877,12.3124915 Z" id="path45"></path>
                            <path d="M2.90690785,1.48705802 C2.90690785,2.26050512 2.27991809,2.88749488 1.50634812,2.88749488 C0.732778157,2.88749488 0.105788396,2.26038225 0.105788396,1.48705802 C0.105788396,0.713488055 0.732901024,0.0864982935 1.50634812,0.0864982935 C2.27979522,0.0864982935 2.90690785,0.713488055 2.90690785,1.48705802 L2.90690785,1.48705802 Z" id="path47"></path>
                        </g>
                    </g>
                    <g id="g49" transform="translate(25.924915, 0.245734)">
                        <path d="M15.159686,5.95400683 C14.0365597,5.95400683 13.1257474,6.86481911 13.1257474,7.98819113 L13.1218157,8.50054608 L13.1218157,12.0667577 C13.1218157,12.8169829 12.5137474,13.4250512 11.7635222,13.4250512 C11.0135427,13.4250512 10.4054744,12.8171058 10.4054744,12.0667577 L10.4054744,8.50054608 L10.4092833,7.98819113 C10.4092833,5.36449147 12.5361092,3.23766553 15.159686,3.23766553 L16.0077133,3.23766553 C16.7578157,3.23766553 17.3660068,3.84573379 17.3660068,4.59583618 C17.3660068,5.3458157 16.7579386,5.95400683 16.0077133,5.95400683 L15.159686,5.95400683 L15.159686,5.95400683 Z" id="path51"></path>
                        <path d="M27.3822389,8.3319727 C27.3822389,11.2321229 25.0309352,13.5835495 22.1306621,13.5835495 C19.2303891,13.5835495 16.8788396,11.2321229 16.8788396,8.3319727 C16.8788396,5.43145392 19.2303891,3.08027304 22.1306621,3.08027304 C25.0309352,3.08027304 27.3822389,5.43145392 27.3822389,8.3319727 L27.3822389,8.3319727 Z M22.1196041,5.61427986 C20.6192765,5.61427986 19.4031399,6.83041638 19.4031399,8.33049829 C19.4031399,9.83070307 20.6192765,11.0468396 22.1196041,11.0468396 C23.619686,11.0468396 24.8358225,9.83070307 24.8358225,8.33049829 C24.8359454,6.83053925 23.619686,5.61427986 22.1196041,5.61427986 L22.1196041,5.61427986 Z" id="path53"></path>
                        <path d="M33.5061706,10.708587 L32.9857065,10.7084642 C31.8620887,10.7084642 30.9513993,9.79777474 30.9513993,8.674157 L30.9473447,8.16204778 L30.9473447,5.95376109 L33.3240819,5.95388396 C34.0741843,5.95388396 34.6823754,5.34593857 34.6823754,4.59571331 C34.6823754,3.84548805 34.0743072,3.2374198 33.3240819,3.2374198 L30.9473447,3.2374198 L30.9473447,2.5585802 C30.9473447,1.80847782 30.3395222,1.20028669 29.5892969,1.20028669 C28.8390717,1.20028669 28.2310034,1.80835495 28.2310034,2.5585802 L28.2310034,8.16192491 L28.2348123,8.67427986 C28.2348123,11.2978567 30.3620068,13.4246826 32.9855836,13.4246826 L33.5060478,13.4248055 C34.2561502,13.4248055 34.8643413,12.8168601 34.8643413,12.0665119 C34.8644642,11.3166553 34.2563959,10.708587 33.5061706,10.708587 L33.5061706,10.708587 Z" id="path55"></path>
                        <path d="M10.0727509,4.79696928 C10.0727509,2.17326962 7.94580205,0.046443686 5.32222526,0.046443686 L4.80987031,0.0425119454 L1.40780887,0.0425119454 C0.657706485,0.0425119454 0.0496382253,0.650580205 0.0496382253,1.40068259 L0.0496382253,12.065529 C0.0496382253,12.8157543 0.657706485,13.4239454 1.40780887,13.4239454 C2.1577884,13.4239454 2.76597952,12.8158771 2.76597952,12.065529 L2.76597952,2.75897611 L4.80999317,2.75897611 L5.32222526,2.76290785 C6.44572014,2.76290785 7.35653242,3.67359727 7.35653242,4.79709215 C7.35653242,5.92058703 6.44572014,6.83139932 5.32222526,6.83139932 L5.48895563,6.83336519 L4.97856655,6.83336519 C4.22858703,6.83336519 3.6203959,7.44118771 3.6203959,8.19153584 C3.6203959,8.94151536 4.22846416,9.54970648 4.97856655,9.54970648 L5.48895563,9.54970648 L5.32234812,9.54774061 C7.94592491,9.54749488 10.0727509,7.42066894 10.0727509,4.79696928 L10.0727509,4.79696928 Z" id="path57"></path>
                    </g>
                </g>
                <g id="g59" transform="translate(49.269625, 0.000000)">
                    <path d="M7.56946075,3.23373379 C7.56946075,3.86956997 7.0537884,4.38499659 6.41807509,4.38499659 C5.78211604,4.38499659 5.26668942,3.86956997 5.26668942,3.23373379 C5.26668942,2.59789761 5.78211604,2.08234812 6.41807509,2.08234812 C7.0537884,2.08234812 7.56946075,2.59802048 7.56946075,3.23373379 L7.56946075,3.23373379 Z" id="path61"></path>
                    <path d="M3.62629352,6.71934471 C3.62629352,7.22801365 3.21382935,7.64047782 2.70503754,7.64047782 C2.19649147,7.64047782 1.7840273,7.22801365 1.7840273,6.71934471 C1.7840273,6.21067577 2.19649147,5.7982116 2.70503754,5.7982116 C3.21370648,5.79808874 3.62629352,6.21067577 3.62629352,6.71934471 L3.62629352,6.71934471 Z" id="path63"></path>
                    <path d="M12.8465939,1.43913993 C12.8465939,2.23408874 12.2020341,2.87827986 11.4072082,2.87827986 C10.6123823,2.87827986 9.96806826,2.23408874 9.96806826,1.43913993 C9.96806826,0.644191126 10.6123823,0 11.4072082,0 C12.2020341,0 12.8465939,0.644191126 12.8465939,1.43913993 L12.8465939,1.43913993 Z" id="path65"></path>
                    <path d="M18.9361229,2.00494198 C18.9361229,2.99844369 18.1307304,3.80395904 17.1369829,3.80395904 C16.143727,3.80395904 15.3380887,2.99844369 15.3380887,2.00494198 C15.3380887,1.01131741 16.143727,0.205924915 17.1369829,0.205924915 C18.1307304,0.206047782 18.9361229,1.01131741 18.9361229,2.00494198 L18.9361229,2.00494198 Z" id="path67"></path>
                    <path d="M24.7087782,5.16606143 C24.7087782,6.40787713 23.7021297,7.41464846 22.4601911,7.41464846 C21.2181297,7.41464846 20.2113584,6.408 20.2113584,5.16606143 C20.2113584,3.924 21.2180068,2.91735154 22.4601911,2.91735154 C23.7020068,2.91735154 24.7087782,3.924 24.7087782,5.16606143 L24.7087782,5.16606143 Z" id="path69"></path>
                    <path d="M28.8044232,11.0926689 C28.8044232,12.5209966 27.6465256,13.6786485 26.2184437,13.6786485 C24.7903618,13.6786485 23.6324642,12.5209966 23.6324642,11.0926689 C23.6324642,9.6643413 24.7903618,8.50668942 26.2184437,8.50668942 C27.6465256,8.50668942 28.8044232,9.6643413 28.8044232,11.0926689 L28.8044232,11.0926689 Z" id="path71"></path>
                    <path d="M29.2898703,18.8717406 C29.2898703,20.5138567 27.9584846,21.8452423 26.3161229,21.8452423 C24.6735154,21.8452423 23.3421297,20.5138567 23.3421297,18.8717406 C23.3421297,17.2296246 24.6735154,15.8983618 26.3161229,15.8983618 C27.9584846,15.8983618 29.2898703,17.2295017 29.2898703,18.8717406 L29.2898703,18.8717406 Z" id="path73"></path>
                    <path d="M26.0190307,26.5252423 C26.0190307,28.4223072 24.4812287,29.9599863 22.5842867,29.9599863 C20.6873447,29.9599863 19.1495427,28.4223072 19.1495427,26.5252423 C19.1495427,24.6280546 20.6873447,23.0904983 22.5842867,23.0904983 C24.4812287,23.0904983 26.0190307,24.6279317 26.0190307,26.5252423 L26.0190307,26.5252423 Z" id="path75"></path>
                    <path d="M18.5250102,31.8463618 C18.5250102,33.972942 16.8013106,35.6966416 14.6748532,35.6966416 C12.5483959,35.6966416 10.8246962,33.972942 10.8246962,31.8463618 C10.8246962,29.7197816 12.5483959,27.9962048 14.6748532,27.9962048 C16.8013106,27.9962048 18.5250102,29.7199044 18.5250102,31.8463618 L18.5250102,31.8463618 Z" id="path77"></path>
                    <path d="M8.73669625,31.6234812 C8.73669625,34.0063618 6.80486007,35.9379522 4.42222526,35.9379522 C2.03959044,35.9379522 0.107754266,34.0062389 0.107754266,31.6234812 C0.107754266,29.2403549 2.03959044,27.309256 4.42222526,27.309256 C6.80486007,27.309256 8.73669625,29.2403549 8.73669625,31.6234812 L8.73669625,31.6234812 Z" id="path79"></path>
                </g>
            </g>
        </g>
    </g>
</svg>